#Comment line ignore any data following # character 
#Hierarchical Translation and Rotation (.htr) file 
[Header]	
#Header keywords are followed by a single value 
FileType HTR		#Single word string
DataType HTRS		#Translation followed by rotation and scale data
FileVersion 1		#integer
NumSegments 84		#integer
NumFrames 2		#integer
DataFrameRate 30		#integer, data frame rate in this file
EulerRotationOrder ZYX
CalibrationUnits mm
RotationUnits Degrees
GlobalAxisofGravity Y
BoneLengthAxis Y
ScaleFactor 1.00
[SegmentNames&Hierarchy]
#CHILD	PARENT
MASTER GLOBAL
root MASTER
chest root
L_mid_tent01 root
R_mid_tent01 root
spine01 root
Bip01_Neck chest
L_humerus chest
R_humerus chest
weapon_bone chest
Bip01_Head Bip01_Neck
eye_left_bone Bip01_Head
eye_right_bone Bip01_Head
L_forearm L_humerus
L_front_hand L_forearm
L_weapon_bone L_forearm
L_front_hand01_01 L_front_hand
L_front_hand02_01 L_front_hand
L_front_hand03_01 L_front_hand
L_front_hand01_02 L_front_hand01_01
L_front_hand02_02 L_front_hand02_01
L_front_hand03_02 L_front_hand03_01
R_forearm R_humerus
R_front_hand R_forearm
R_weapon_bone R_forearm
R_front_hand01_01 R_front_hand
R_front_hand02_01 R_front_hand
R_front_hand03_01 R_front_hand
R_front_hand01_02 R_front_hand01_01
R_front_hand02_02 R_front_hand02_01
R_front_hand03_02 R_front_hand03_01
null_rope01_connect L_mid_tent01
Rope1_Seg01 null_rope01_connect
Rope1_Seg02 Rope1_Seg01
Rope1_Seg03 Rope1_Seg02
Rope1_Seg04 Rope1_Seg03
Rope1_Seg05 Rope1_Seg04
Rope1_Seg06 Rope1_Seg05
Rope1_Seg07 Rope1_Seg06
Rope1_Seg09 Rope1_Seg07
L_mid_hand01 Rope1_Seg09
L_mid_hand02 Rope1_Seg09
L_mid_hand03 Rope1_Seg09
null_rope02_connect R_mid_tent01
Rope2_Seg01 null_rope02_connect
Rope2_Seg02 Rope2_Seg01
Rope2_Seg03 Rope2_Seg02
Rope2_Seg04 Rope2_Seg03
Rope2_Seg05 Rope2_Seg04
Rope2_Seg06 Rope2_Seg05
Rope2_Seg07 Rope2_Seg06
Rope2_Seg09 Rope2_Seg07
R_mid_hand01 Rope2_Seg09
R_mid_hand02 Rope2_Seg09
R_mid_hand03 Rope2_Seg09
spine02 spine01
spine03 spine02
pelvis spine03
null_rope03_connect pelvis
null_rope04_connect pelvis
Rope3_Seg01 null_rope03_connect
Rope3_Seg02 Rope3_Seg01
Rope3_Seg03 Rope3_Seg02
Rope3_Seg04 Rope3_Seg03
Rope3_Seg05 Rope3_Seg04
Rope3_Seg06 Rope3_Seg05
Rope3_Seg07 Rope3_Seg06
Rope3_Seg08 Rope3_Seg07
Rope3_Seg09 Rope3_Seg08
R_rear_hand01 Rope3_Seg09
R_rear_hand02 Rope3_Seg09
R_rear_hand03 Rope3_Seg09
Rope4_Seg01 null_rope04_connect
Rope4_Seg02 Rope4_Seg01
Rope4_Seg03 Rope4_Seg02
Rope4_Seg04 Rope4_Seg03
Rope4_Seg05 Rope4_Seg04
Rope4_Seg06 Rope4_Seg05
Rope4_Seg07 Rope4_Seg06
Rope4_Seg08 Rope4_Seg07
Rope4_Seg09 Rope4_Seg08
L_rear_hand01 Rope4_Seg09
L_rear_hand02 Rope4_Seg09
L_rear_hand03 Rope4_Seg09
[BasePosition]
#SegmentName Tx, Ty, Tz, Rx, Ry, Rz, BoneLength
MASTER 0.000000 0.000000 0.000000 -90.000000 0.000000 0.000000 10.000000 
root 0.000000 0.000000 0.000000 0.000000 0.000000 0.000000 10.000000 
chest 0.000000 0.000000 0.000000 0.000000 0.000000 0.000000 10.000000 
L_mid_tent01 0.000000 0.000000 0.000000 0.000000 0.000000 0.000000 10.000000 
R_mid_tent01 0.000000 0.000000 0.000000 0.000000 0.000000 0.000000 10.000000 
spine01 0.000000 0.000000 0.000000 0.000000 0.000000 0.000000 10.000000 
Bip01_Neck 0.000000 0.000000 0.000000 0.000000 0.000000 0.000000 10.000000 
L_humerus 0.000000 0.000000 0.000000 0.000000 0.000000 0.000000 10.000000 
R_humerus 0.000000 0.000000 0.000000 0.000000 0.000000 0.000000 10.000000 
weapon_bone 0.000000 0.000000 0.000000 0.000000 0.000000 0.000000 10.000000 
Bip01_Head 0.000000 0.000000 0.000000 0.000000 0.000000 0.000000 10.000000 
eye_left_bone 0.000000 0.000000 0.000000 0.000000 0.000000 0.000000 10.000000 
eye_right_bone 0.000000 0.000000 0.000000 0.000000 0.000000 0.000000 10.000000 
L_forearm 0.000000 0.000000 0.000000 0.000000 0.000000 0.000000 10.000000 
L_front_hand 0.000000 0.000000 0.000000 0.000000 0.000000 0.000000 10.000000 
L_weapon_bone 0.000000 0.000000 0.000000 0.000000 0.000000 0.000000 10.000000 
L_front_hand01_01 0.000000 0.000000 0.000000 0.000000 0.000000 0.000000 10.000000 
L_front_hand02_01 0.000000 0.000000 0.000000 0.000000 0.000000 0.000000 10.000000 
L_front_hand03_01 0.000000 0.000000 0.000000 0.000000 0.000000 0.000000 10.000000 
L_front_hand01_02 0.000000 0.000000 0.000000 0.000000 0.000000 0.000000 10.000000 
L_front_hand02_02 0.000000 0.000000 0.000000 0.000000 0.000000 0.000000 10.000000 
L_front_hand03_02 0.000000 0.000000 0.000000 0.000000 0.000000 0.000000 10.000000 
R_forearm 0.000000 0.000000 0.000000 0.000000 0.000000 0.000000 10.000000 
R_front_hand 0.000000 0.000000 0.000000 0.000000 0.000000 0.000000 10.000000 
R_weapon_bone 0.000000 0.000000 0.000000 0.000000 0.000000 0.000000 10.000000 
R_front_hand01_01 0.000000 0.000000 0.000000 0.000000 0.000000 0.000000 10.000000 
R_front_hand02_01 0.000000 0.000000 0.000000 0.000000 0.000000 0.000000 10.000000 
R_front_hand03_01 0.000000 0.000000 0.000000 0.000000 0.000000 0.000000 10.000000 
R_front_hand01_02 0.000000 0.000000 0.000000 0.000000 0.000000 0.000000 10.000000 
R_front_hand02_02 0.000000 0.000000 0.000000 0.000000 0.000000 0.000000 10.000000 
R_front_hand03_02 0.000000 0.000000 0.000000 0.000000 0.000000 0.000000 10.000000 
null_rope01_connect 0.000000 0.000000 0.000000 0.000000 0.000000 0.000000 10.000000 
Rope1_Seg01 0.000000 0.000000 0.000000 0.000000 0.000000 0.000000 10.000000 
Rope1_Seg02 0.000000 0.000000 0.000000 0.000000 0.000000 0.000000 10.000000 
Rope1_Seg03 0.000000 0.000000 0.000000 0.000000 0.000000 0.000000 10.000000 
Rope1_Seg04 0.000000 0.000000 0.000000 0.000000 0.000000 0.000000 10.000000 
Rope1_Seg05 0.000000 0.000000 0.000000 0.000000 0.000000 0.000000 10.000000 
Rope1_Seg06 0.000000 0.000000 0.000000 0.000000 0.000000 0.000000 10.000000 
Rope1_Seg07 0.000000 0.000000 0.000000 0.000000 0.000000 0.000000 10.000000 
Rope1_Seg09 0.000000 0.000000 0.000000 0.000000 0.000000 0.000000 10.000000 
L_mid_hand01 0.000000 0.000000 0.000000 0.000000 0.000000 0.000000 10.000000 
L_mid_hand02 0.000000 0.000000 0.000000 0.000000 0.000000 0.000000 10.000000 
L_mid_hand03 0.000000 0.000000 0.000000 0.000000 0.000000 0.000000 10.000000 
null_rope02_connect 0.000000 0.000000 0.000000 0.000000 0.000000 0.000000 10.000000 
Rope2_Seg01 0.000000 0.000000 0.000000 0.000000 0.000000 0.000000 10.000000 
Rope2_Seg02 0.000000 0.000000 0.000000 0.000000 0.000000 0.000000 10.000000 
Rope2_Seg03 0.000000 0.000000 0.000000 0.000000 0.000000 0.000000 10.000000 
Rope2_Seg04 0.000000 0.000000 0.000000 0.000000 0.000000 0.000000 10.000000 
Rope2_Seg05 0.000000 0.000000 0.000000 0.000000 0.000000 0.000000 10.000000 
Rope2_Seg06 0.000000 0.000000 0.000000 0.000000 0.000000 0.000000 10.000000 
Rope2_Seg07 0.000000 0.000000 0.000000 0.000000 0.000000 0.000000 10.000000 
Rope2_Seg09 0.000000 0.000000 0.000000 0.000000 0.000000 0.000000 10.000000 
R_mid_hand01 0.000000 0.000000 0.000000 0.000000 0.000000 0.000000 10.000000 
R_mid_hand02 0.000000 0.000000 0.000000 0.000000 0.000000 0.000000 10.000000 
R_mid_hand03 0.000000 0.000000 0.000000 0.000000 0.000000 0.000000 10.000000 
spine02 0.000000 0.000000 0.000000 0.000000 0.000000 0.000000 10.000000 
spine03 0.000000 0.000000 0.000000 0.000000 0.000000 0.000000 10.000000 
pelvis 0.000000 0.000000 0.000000 0.000000 0.000000 0.000000 10.000000 
null_rope03_connect 0.000000 0.000000 0.000000 0.000000 0.000000 0.000000 10.000000 
null_rope04_connect 0.000000 0.000000 0.000000 0.000000 0.000000 0.000000 10.000000 
Rope3_Seg01 0.000000 0.000000 0.000000 0.000000 0.000000 0.000000 10.000000 
Rope3_Seg02 0.000000 0.000000 0.000000 0.000000 0.000000 0.000000 10.000000 
Rope3_Seg03 0.000000 0.000000 0.000000 0.000000 0.000000 0.000000 10.000000 
Rope3_Seg04 0.000000 0.000000 0.000000 0.000000 0.000000 0.000000 10.000000 
Rope3_Seg05 0.000000 0.000000 0.000000 0.000000 0.000000 0.000000 10.000000 
Rope3_Seg06 0.000000 0.000000 0.000000 0.000000 0.000000 0.000000 10.000000 
Rope3_Seg07 0.000000 0.000000 0.000000 0.000000 0.000000 0.000000 10.000000 
Rope3_Seg08 0.000000 0.000000 0.000000 0.000000 0.000000 0.000000 10.000000 
Rope3_Seg09 0.000000 0.000000 0.000000 0.000000 0.000000 0.000000 10.000000 
R_rear_hand01 0.000000 0.000000 0.000000 0.000000 0.000000 0.000000 10.000000 
R_rear_hand02 0.000000 0.000000 0.000000 0.000000 0.000000 0.000000 10.000000 
R_rear_hand03 0.000000 0.000000 0.000000 0.000000 0.000000 0.000000 10.000000 
Rope4_Seg01 0.000000 0.000000 0.000000 0.000000 0.000000 0.000000 10.000000 
Rope4_Seg02 0.000000 0.000000 0.000000 0.000000 0.000000 0.000000 10.000000 
Rope4_Seg03 0.000000 0.000000 0.000000 0.000000 0.000000 0.000000 10.000000 
Rope4_Seg04 0.000000 0.000000 0.000000 0.000000 0.000000 0.000000 10.000000 
Rope4_Seg05 0.000000 0.000000 0.000000 0.000000 0.000000 0.000000 10.000000 
Rope4_Seg06 0.000000 0.000000 0.000000 0.000000 0.000000 0.000000 10.000000 
Rope4_Seg07 0.000000 0.000000 0.000000 0.000000 0.000000 0.000000 10.000000 
Rope4_Seg08 0.000000 0.000000 0.000000 0.000000 0.000000 0.000000 10.000000 
Rope4_Seg09 0.000000 0.000000 0.000000 0.000000 0.000000 0.000000 10.000000 
L_rear_hand01 0.000000 0.000000 0.000000 0.000000 0.000000 0.000000 10.000000 
L_rear_hand02 0.000000 0.000000 0.000000 0.000000 0.000000 0.000000 10.000000 
L_rear_hand03 0.000000 0.000000 0.000000 0.000000 0.000000 0.000000 10.000000 
#Beginning of Data. Separated by tabs
#Fr	Tx	Ty	Tz	Rx	Ry	Rz	SF
[MASTER]
15 0.000000 0.000000 0.000000 0.001660 0.001660 0.001660 0.000000
16 0.000000 0.000000 0.000000 0.001660 0.001660 0.001660 0.000000
[root]
15 -26.771322 -62.786938 1286.069458 -91.632050 -28.268900 -90.159630 1287.879517
16 -29.091799 -62.796169 1270.029907 -91.629738 -28.296473 -90.166756 1271.914185
[chest]
15 -84.512650 -34.090519 0.000000 -7.380233 4.521053 179.949646 91.129311
16 -84.512650 -34.090519 0.000000 -7.122040 4.107473 179.926071 91.129311
[L_mid_tent01]
15 27.299511 22.177460 -249.917999 -4.129108 15.307451 41.034222 252.380875
16 27.299513 22.177454 -249.917999 -5.351100 21.231827 41.053802 252.380875
[R_mid_tent01]
15 23.228794 24.509907 226.238495 -177.270416 -16.097067 44.989208 228.744751
16 23.228794 24.509907 226.238495 -176.086533 -20.802347 45.899040 228.744751
[spine01]
15 -0.361383 -0.195265 0.000000 0.448380 0.439263 13.651466 0.410763
16 -0.361383 -0.195265 0.000000 0.404265 0.434372 13.516788 0.410763
[Bip01_Neck]
15 165.484543 71.581718 0.000119 175.896118 1.177290 24.871180 180.302734
16 165.484543 71.581718 0.000119 175.896118 1.177290 24.871183 180.302734
[L_humerus]
15 -13.983130 -135.272980 -120.471481 179.077530 1.380842 -160.384399 181.680161
16 -13.983130 -135.272980 -120.471481 178.919998 1.634171 -161.215637 181.680161
[R_humerus]
15 -13.983309 -135.273102 125.287651 -178.920212 1.487099 -151.937653 184.909012
16 -13.983309 -135.273102 125.287651 -178.947281 1.513406 -152.992172 184.909012
[weapon_bone]
15 235.964890 -300.705902 0.000000 0.000000 -89.951546 -128.212341 382.234833
16 235.964890 -300.705902 0.000000 0.000000 -89.951546 -128.212341 382.234833
[Bip01_Head]
15 252.726074 129.746353 -16.673626 -0.945603 5.067880 -69.549072 284.574402
16 251.882431 132.981094 -12.397442 -0.755104 4.893758 -70.372871 285.100739
[eye_left_bone]
15 -24.626970 125.451866 -64.772606 0.000000 -90.000000 -99.840431 143.318359
16 -24.626970 125.451866 -64.772606 0.000000 -90.000000 -99.840431 143.318359
[eye_right_bone]
15 -24.626970 125.451866 64.327362 0.000000 -89.960434 80.159386 143.117676
16 -24.626970 125.451866 64.327362 0.000000 -89.960434 80.159386 143.117676
[L_forearm]
15 322.776093 0.000000 -0.000119 0.000173 0.002341 -81.547134 322.776093
16 322.776093 0.000000 -0.000119 0.000176 0.002341 -81.423111 322.776093
[L_front_hand]
15 241.149185 -0.042021 -3.300071 -179.133560 -2.093449 -13.898753 241.171753
16 241.149185 -0.042021 -3.300071 -179.030518 -2.048857 -16.725273 241.171753
[L_weapon_bone]
15 156.183838 0.000000 0.000000 0.002085 0.001077 35.363068 156.183838
16 156.183838 0.000000 0.000000 0.002069 0.001109 33.607571 156.183838
[L_front_hand01_01]
15 86.095154 20.947098 -0.655860 0.405585 -0.442306 -4.620490 88.609184
16 86.095154 20.947098 -0.655860 0.405585 -0.442306 -4.620490 88.609184
[L_front_hand02_01]
15 86.935165 -11.437475 24.513514 116.959450 3.630818 1.495453 91.046425
16 86.935165 -11.437475 24.513514 116.959450 3.630817 1.495453 91.046425
[L_front_hand03_01]
15 86.637497 -14.123976 -20.424902 -118.420097 -4.656304 -0.152527 90.126129
16 86.637497 -14.123976 -20.424902 -118.420097 -4.656303 -0.152527 90.126129
[L_front_hand01_02]
15 71.020905 -0.000179 0.000030 0.001534 0.001777 -8.378851 71.020905
16 71.020905 -0.000179 0.000030 0.001534 0.001777 -8.378848 71.020905
[L_front_hand02_02]
15 71.020927 -0.000119 0.000060 0.001534 0.001777 -8.378851 71.020927
16 71.020927 -0.000119 0.000060 0.001534 0.001777 -8.378848 71.020927
[L_front_hand03_02]
15 71.020905 -0.000060 0.000060 0.001534 0.001777 -8.378851 71.020905
16 71.020905 -0.000060 0.000060 0.001534 0.001777 -8.378848 71.020905
[R_forearm]
15 322.776428 -0.000060 0.000030 0.205491 -0.049570 -76.804459 322.776428
16 322.776428 -0.000060 0.000030 0.208052 -0.055400 -75.729294 322.776428
[R_front_hand]
15 238.847015 -0.006795 2.210259 -1.112231 1.320590 -28.797386 238.857239
16 238.847015 -0.006795 2.210259 -1.244375 1.197880 -34.795826 238.857239
[R_weapon_bone]
15 155.664093 0.002503 -0.000030 0.002772 0.002422 -135.882462 155.664078
16 155.664093 0.002503 -0.000030 0.002801 0.002388 -134.507645 155.664078
[R_front_hand01_01]
15 87.624611 14.231146 22.918642 -116.960205 3.496675 -1.324138 91.683487
16 87.624611 14.231146 22.918642 -116.960213 3.496675 -1.324139 91.683487
[R_front_hand02_01]
15 89.356956 14.367283 -19.491137 118.419632 -4.257089 0.609828 92.579636
16 89.356956 14.367283 -19.491137 118.419647 -4.257089 0.609827 92.579636
[R_front_hand03_01]
15 87.286232 -22.307278 -0.143439 -0.387970 -0.231462 4.232001 90.091743
16 87.286232 -22.307278 -0.143439 -0.387970 -0.231462 4.232001 90.091743
[R_front_hand01_02]
15 71.020905 0.000060 0.000119 0.001777 0.001534 8.377220 71.020905
16 71.020905 0.000060 0.000119 0.001777 0.001534 8.377220 71.020905
[R_front_hand02_02]
15 71.020844 -0.000030 -0.000119 0.001777 0.001534 8.377220 71.020836
16 71.020844 -0.000030 -0.000119 0.001777 0.001534 8.377220 71.020836
[R_front_hand03_02]
15 71.020905 0.000000 0.000030 0.001777 0.001534 8.377220 71.020905
16 71.020905 0.000000 0.000030 0.001777 0.001534 8.377220 71.020905
[null_rope01_connect]
15 328.732483 0.000000 -0.000238 -120.735298 -72.642441 -162.464569 328.732483
16 328.732483 0.000000 -0.000238 -119.234924 -66.629135 -164.370926 328.732483
[Rope1_Seg01]
15 0.000000 0.000000 0.000000 -39.161499 27.747734 -83.948425 0.000000
16 0.000000 0.000000 0.000000 -40.547798 26.517454 -93.034142 0.000000
[Rope1_Seg02]
15 139.999863 -0.000179 0.000000 -22.852343 10.564446 22.303190 139.999863
16 139.999863 -0.000179 0.000000 -30.854816 11.841990 20.286470 139.999863
[Rope1_Seg03]
15 139.999924 0.000060 -0.000060 -12.207870 1.440250 60.184574 139.999924
16 139.999924 0.000060 -0.000060 -17.252394 -0.690555 52.156754 139.999924
[Rope1_Seg04]
15 139.999924 -0.000060 -0.000119 3.616536 -5.265857 26.313284 139.999924
16 139.999924 -0.000060 -0.000119 -0.656611 -7.626782 25.234777 139.999924
[Rope1_Seg05]
15 139.999832 0.000119 -0.000060 7.081822 -2.907323 16.931438 139.999832
16 139.999832 0.000119 -0.000060 1.726987 -6.581281 15.282403 139.999832
[Rope1_Seg06]
15 139.999954 0.000119 -0.000060 11.984784 -0.717067 14.742340 139.999954
16 139.999954 0.000119 -0.000060 5.878202 -8.321176 19.439741 139.999954
[Rope1_Seg07]
15 139.999985 0.000060 0.000000 9.528974 1.308163 7.406543 139.999985
16 139.999985 0.000060 0.000000 9.951612 -3.061677 11.700404 139.999985
[Rope1_Seg09]
15 121.602913 0.000119 -0.000089 -89.793175 -1.359789 0.847147 121.602913
16 121.602913 0.000119 -0.000089 -89.793175 -1.359789 0.847147 121.602913
[L_mid_hand01]
15 103.859421 1.038730 8.195221 104.445618 -6.473852 -2.195932 104.187431
16 103.859421 1.038730 8.195221 104.530579 -8.858539 -2.815847 104.187431
[L_mid_hand02]
15 105.572853 -4.139662 -10.864139 -136.174118 8.800064 -8.461082 106.211075
16 105.572853 -4.139662 -10.864139 -136.473404 10.500956 -10.268885 106.211075
[L_mid_hand03]
15 104.641464 17.579376 -3.913581 -18.668604 1.936293 9.606004 106.179977
16 104.641464 17.579376 -3.913581 -18.575745 2.721513 11.937086 106.179977
[null_rope02_connect]
15 328.732849 0.000179 -0.000119 -113.210785 75.128479 -5.984926 328.732849
16 328.732849 0.000179 -0.000119 -116.252625 70.341034 -7.774774 328.732849
[Rope2_Seg01]
15 0.000018 0.000092 0.000066 100.414063 13.782308 -73.833611 0.000115
16 0.000023 0.000094 0.000062 93.871353 13.440001 -59.764919 0.000115
[Rope2_Seg02]
15 139.999741 -0.000060 -0.000119 55.399151 -19.435316 -41.809601 139.999756
16 139.999741 -0.000060 -0.000119 67.291290 -10.744705 -32.016773 139.999756
[Rope2_Seg03]
15 140.000107 0.000030 0.000000 12.048706 -43.567390 -11.456264 140.000107
16 140.000107 0.000030 0.000000 9.919502 -42.633842 -0.079213 140.000107
[Rope2_Seg04]
15 139.999802 0.000000 -0.000060 -4.722178 -39.519115 -14.616856 139.999802
16 139.999802 0.000000 -0.000060 0.988357 -31.853567 -3.978907 139.999802
[Rope2_Seg05]
15 139.999985 -0.000060 0.000119 -12.082501 -17.689554 -9.984030 139.999985
16 139.999985 -0.000060 0.000119 -8.163620 -29.344683 -8.094362 139.999985
[Rope2_Seg06]
15 139.999893 -0.000030 -0.000119 -5.411752 -4.717948 -4.022982 139.999893
16 139.999893 -0.000030 -0.000119 -6.312900 -9.609309 -3.787636 139.999893
[Rope2_Seg07]
15 139.999893 0.000060 -0.000060 -3.303306 -2.355241 -2.439653 139.999893
16 139.999893 0.000060 -0.000060 -4.141636 -4.565821 -2.393980 139.999893
[Rope2_Seg09]
15 121.338966 0.000089 -0.000060 33.793236 -1.359788 -0.847141 121.338966
16 121.338966 0.000089 -0.000060 33.793236 -1.359788 -0.847141 121.338966
[R_mid_hand01]
15 104.680779 11.144459 -10.335981 -46.801632 8.973898 11.064855 105.778534
16 104.680779 11.144459 -10.335981 -46.526108 10.640026 12.655807 105.778534
[R_mid_hand02]
15 104.070427 2.443552 8.231699 75.403473 -10.192800 3.176565 104.424065
16 104.070427 2.443552 8.231699 75.284584 -12.403854 3.766673 104.424065
[R_mid_hand03]
15 106.028137 -11.221827 -5.996406 -164.874466 4.674491 -14.062486 106.788818
16 106.028137 -11.221827 -5.996406 -165.067444 5.264448 -16.276682 106.788818
[spine02]
15 129.756927 0.001550 0.000119 -0.191881 -4.224815 -5.192038 129.756927
16 129.756927 0.001550 0.000119 -0.184817 -4.216154 -5.293853 129.756927
[spine03]
15 78.737640 0.065613 -3.689689 1.340364 2.145190 5.114025 78.824066
16 78.751511 0.063197 -3.554327 1.409902 1.898381 6.062843 78.831703
[pelvis]
15 169.435242 0.051022 0.000000 0.008920 0.882428 -2.590114 169.435257
16 169.435242 0.051022 0.000000 0.009501 0.988828 -2.674221 169.435257
[null_rope03_connect]
15 -1.257226 -2.466202 137.391083 0.000000 -89.597496 107.269188 137.418976
16 -1.257226 -2.466202 137.391083 0.000000 -89.531029 106.659233 137.418976
[null_rope04_connect]
15 -1.259640 -2.480268 -137.844437 0.000000 -89.597496 107.269188 137.872513
16 -1.259640 -2.480268 -137.844437 0.000000 -89.531029 106.659233 137.872513
[Rope3_Seg01]
15 0.000000 0.000000 0.000000 155.041214 -53.974232 -8.953847 0.000000
16 0.000000 0.000000 0.000000 -169.428375 -37.024258 -24.590605 0.000000
[Rope3_Seg02]
15 139.999924 -0.000119 0.000060 -10.407178 4.583882 -7.737028 139.999924
16 139.999924 -0.000119 0.000060 -21.504196 3.818453 -16.249132 139.999924
[Rope3_Seg03]
15 139.999924 -0.000119 0.000119 -19.085934 9.011802 -10.575138 139.999924
16 139.999924 -0.000119 0.000119 -41.805981 12.100774 -17.866739 139.999924
[Rope3_Seg04]
15 139.999924 0.000119 0.000000 -21.462290 13.602707 -8.677565 139.999924
16 139.999924 0.000119 0.000000 -27.329884 19.658827 -5.643021 139.999924
[Rope3_Seg05]
15 139.999924 -0.000238 0.000060 -21.929735 26.560375 -4.800320 139.999924
16 139.999924 -0.000238 0.000060 -13.629519 24.957706 3.845109 139.999924
[Rope3_Seg06]
15 139.999893 -0.000119 -0.000060 -6.213895 28.307278 6.709572 139.999893
16 139.999893 -0.000119 -0.000060 -2.641489 14.426922 6.093196 139.999893
[Rope3_Seg07]
15 139.999771 0.000060 -0.000119 0.046950 12.283172 4.489645 139.999771
16 139.999771 0.000060 -0.000119 -0.271567 6.916323 3.434256 139.999771
[Rope3_Seg08]
15 139.999985 -0.000060 0.000000 0.694230 5.793587 2.136599 139.999985
16 139.999985 -0.000060 0.000000 0.266266 3.737383 1.890797 139.999985
[Rope3_Seg09]
15 90.185997 -0.000179 -0.000060 89.793228 -1.359877 -0.847183 90.185997
16 90.185997 -0.000179 -0.000060 89.793228 -1.359877 -0.847183 90.185997
[R_rear_hand01]
15 103.366196 -6.073594 -10.757982 -156.260391 6.888778 -4.662065 104.101845
16 103.366196 -6.073594 -10.757982 -156.519684 7.778793 -6.714527 104.101845
[R_rear_hand02]
15 100.509819 12.039542 -7.992327 -38.633274 3.224915 7.045919 101.543350
16 100.509819 12.039542 -7.992327 -38.515537 4.609975 8.784945 101.543350
[R_rear_hand03]
15 101.539970 5.215704 5.435467 84.294785 -4.384020 4.300456 101.819031
16 101.539970 5.215704 5.435467 84.275841 -6.590108 4.520812 101.819031
[Rope4_Seg01]
15 0.000010 0.000038 -0.000114 58.262115 -45.495701 -112.373032 0.000121
16 0.000010 0.000038 -0.000114 51.716503 -30.582985 -108.466515 0.000121
[Rope4_Seg02]
15 139.999985 0.000060 0.000119 4.250133 -15.722691 2.367516 139.999985
16 139.999985 0.000060 0.000119 3.736612 -18.511641 0.916687 139.999985
[Rope4_Seg03]
15 139.999924 0.000000 -0.000238 16.127300 -26.399382 6.299983 139.999924
16 139.999924 0.000000 -0.000238 14.678213 -27.391104 3.305044 139.999924
[Rope4_Seg04]
15 139.999985 0.000000 0.000119 29.714350 -21.194895 11.872088 139.999985
16 139.999985 0.000000 0.000119 27.097708 -20.016127 8.316462 139.999985
[Rope4_Seg05]
15 139.999802 -0.000060 -0.000119 26.652163 -8.097807 18.588461 139.999802
16 139.999802 -0.000060 -0.000119 40.163631 -15.935962 21.352699 139.999802
[Rope4_Seg06]
15 139.999924 0.000000 0.000060 19.131821 3.462401 26.990503 139.999924
16 139.999924 0.000000 0.000060 20.020979 2.205830 23.836189 139.999924
[Rope4_Seg07]
15 139.999802 0.000000 0.000000 5.876421 7.067171 15.421935 139.999802
16 139.999802 0.000000 0.000000 4.794803 4.347251 9.516703 139.999802
[Rope4_Seg08]
15 139.999924 0.000000 0.000119 -0.026499 3.838750 6.843597 139.999924
16 139.999924 0.000000 0.000119 0.225168 2.581471 4.643288 139.999924
[Rope4_Seg09]
15 90.185791 0.000060 0.000060 -135.617828 2.228885 0.850567 90.185791
16 90.185791 0.000060 0.000060 -135.617828 2.228885 0.850567 90.185791
[L_rear_hand01]
15 101.696655 -8.392275 -7.654577 -38.734707 -1.082941 175.627792 102.329041
16 101.696655 -8.392275 -7.654577 -38.676117 -2.543634 173.809082 102.329041
[L_rear_hand02]
15 102.726799 -1.568258 5.773216 84.315697 0.973581 176.040802 102.900848
16 102.726799 -1.568258 5.773216 84.302147 3.292158 175.808121 102.900848
[L_rear_hand03]
15 104.552910 9.721220 -10.420293 -155.919388 -5.502451 -178.482681 105.519653
16 104.552910 9.721220 -10.420293 -156.143280 -6.452847 -176.342621 105.519653
